<svg width="121" height="22" viewBox="0 0 121 22" fill="none" xmlns="http://www.w3.org/2000/svg">
<g clip-path="url(#clip0_1_308)">
<path d="M28.0982 10.7358L27.5855 0.839844L0 2.38148L0.545297 12.9307L11.1904 20.8398L39.0476 18.3596L28.0982 10.7358Z" fill="#3A3A3A"/>
</g>
<path d="M118.187 21.2518C115.303 21.2518 113.791 19.8238 113.791 16.9398V15.5678V8.87576H111.299V6.85976H113.791V3.05176H116.647V6.85976H120.931V8.87576H116.647V15.3998V16.4918C116.647 18.1718 117.459 18.8998 119.083 18.8998C119.783 18.8998 120.455 18.7598 120.987 18.6198V20.8878C120.259 21.0838 119.251 21.2518 118.187 21.2518Z" fill="#3A3A3A"/>
<path d="M105.419 21.2518C102.535 21.2518 101.023 19.8238 101.023 16.9398V15.5678V8.87576H98.5305V6.85976H101.023V3.05176H103.879V6.85976H108.163V8.87576H103.879V15.3998V16.4918C103.879 18.1718 104.691 18.8998 106.315 18.8998C107.015 18.8998 107.687 18.7598 108.219 18.6198V20.8878C107.491 21.0838 106.483 21.2518 105.419 21.2518Z" fill="#3A3A3A"/>
<path d="M87.3059 21.2518C84.2539 21.2518 82.5459 19.7678 82.5459 17.4158C82.5459 15.2038 83.8619 13.7198 87.6139 13.2718L92.1779 12.7118V11.7318C92.1779 9.63183 90.9459 8.62383 88.8459 8.62383C86.8019 8.62383 85.6819 9.60383 85.6259 11.5078H82.8259C82.8819 8.25983 85.1779 6.57983 88.9579 6.57983C93.0459 6.57983 95.0059 8.45584 95.0059 11.8438V20.9998H92.7379V19.6838L92.9619 18.3958H92.6259C91.8979 19.8518 90.2459 21.2518 87.3059 21.2518ZM85.3459 17.1078C85.3459 18.5078 86.3819 19.2638 88.0059 19.2638C90.4979 19.2638 92.1779 17.6958 92.1779 15.3998V14.4758L88.1459 14.9238C86.1859 15.1758 85.3459 15.9038 85.3459 17.1078Z" fill="#3A3A3A"/>
<path d="M67.385 20.9998V0.839844H70.241V12.8518H70.661L70.997 12.1238L76.429 6.85985H79.649V7.27984L73.293 13.6078L79.761 20.6078V20.9998H76.513L70.941 15.1478L70.661 14.4478H70.241V20.9998H67.385Z" fill="#3A3A3A"/>
<path d="M55.6916 21.2239C51.0716 21.2239 48.4396 19.2639 48.0476 15.5959H51.0996C51.4916 17.8919 53.1156 19.0399 55.8036 19.0399C58.2956 19.0399 60.0316 17.8359 60.0316 15.8479C60.0316 14.2239 59.0236 13.2159 56.6436 12.5719L52.9756 11.7319C49.8676 10.9479 48.4676 9.1559 48.4676 6.7479C48.4676 3.5279 51.0996 1.3999 55.6076 1.3999C59.8076 1.3999 62.4116 3.3319 62.8036 6.9159H59.7516C59.3596 4.5359 57.6796 3.5839 55.5516 3.5839C53.0876 3.5839 51.6036 4.7599 51.6036 6.4959C51.6036 7.8399 52.3876 8.8199 54.3756 9.3239L58.0716 10.1919C61.6556 11.1159 63.2236 12.9359 63.2236 15.5399C63.2236 19.0119 60.3676 21.2239 55.6916 21.2239Z" fill="#3A3A3A"/>
<defs>
<clipPath id="clip0_1_308">
<rect width="39.0476" height="20" fill="white" transform="translate(0 0.839844)"/>
</clipPath>
</defs>
</svg>
